<?xml version="1.0" encoding="UTF-8"?>
<svg id="Capa_2" data-name="Capa 2" xmlns="http://www.w3.org/2000/svg" viewBox="0 0 302.27 346.85">
  <defs>
    <style>
      .cls-1 {
        fill: #383536;
      }

      .cls-1, .cls-2 {
        stroke-width: 0px;
      }

      .cls-2 {
        fill: #fed141;
      }
    </style>
  </defs>
  <g id="Capa_1-2" data-name="Capa 1">
    <path class="cls-2" d="M0,106.22c4.56-4.89,8.75-10.16,16.66-9.49,5.89.5,10.34,3.98,15.06,6.69,37.43,21.45,74.81,42.98,111.96,64.91,5.67,3.35,9.91,2.95,15.11-.04,35.73-20.61,71.48-41.18,107.36-61.53,6.64-3.76,12.52-9.48,20.99-9.34,7.66.12,12.85,4.19,14.33,11.67.52,2.61.77,5.31.77,7.97.04,40.09.04,80.18.02,120.27,0,14.3-3.78,16.89-17.32,11.63-5.73-2.23-10.9-5.62-15.77-9.32-4.01-3.05-5.43-7.49-5.4-12.5.08-13.64.08-27.28.03-40.92-.05-14.23-11.41-21.24-23.98-14.28-26.97,14.94-53.73,30.25-80.49,45.55-5.97,3.41-11.64,3.37-17.43,0-25.65-14.86-51.3-29.7-76.91-44.63-9.87-5.76-18.71-4.73-23.86,3.22-2.44,3.76-2.6,8.13-2.58,12.47.07,12.6.23,25.21.19,37.81-.05,14.99-18.29,26.59-31.1,20.05-3.46-1.77-4.41-5.68-7.63-7.46V106.22Z"/>
    <path class="cls-1" d="M150.56,346.85c-22.32-12.9-44.65-25.78-66.96-38.7-12.71-7.36-25.45-14.68-38.1-22.14-13.42-7.92-13.23-21.45.32-29.12,1.62-.92,3.35-1.68,4.84-2.77,5.8-4.21,11.25-3.5,17.25.07,23.28,13.86,47.07,26.89,69.95,41.35,10,6.32,17.6,5.89,27.36-.16,22.49-13.94,45.65-26.8,68.57-40.04,10.41-6.01,24.99-2.04,31.25,8.38,4.73,7.87,2.04,16.86-6.9,22.01-28.13,16.22-56.33,32.32-84.49,48.48-7.3,4.19-14.57,8.43-21.85,12.64h-1.24Z"/>
    <path class="cls-1" d="M35.75,75.34c.08-7.01,2.49-11.4,7.35-14.2C77.66,41.16,112.27,21.27,146.82,1.27c3.05-1.76,5.52-1.65,8.56.1,34.45,19.77,69.03,39.3,103.42,59.16,11.14,6.43,11,19.27.68,26.99-9.57,7.16-18.27,7.95-28.96,1.36-23.58-14.53-47.91-27.86-71.8-41.91-5.21-3.06-9.5-3.2-14.84-.02-25.41,15.13-51.27,29.52-76.48,44.98-9.47,5.81-15.54.09-22.63-3.61-5.76-3.01-9.22-7.56-9.02-12.97Z"/>
  </g>
</svg>