<?xml version="1.0" encoding="UTF-8"?>
<svg id="Capa_2" data-name="Capa 2" xmlns="http://www.w3.org/2000/svg" viewBox="0 0 1528.77 346.85">
  <defs>
    <style>
      .cls-1 {
        fill: #fed141;
      }

      .cls-1, .cls-2 {
        stroke-width: 0px;
      }

      .cls-2 {
        fill: #fff;
      }
    </style>
  </defs>
  <g id="Capa_1-2" data-name="Capa 1">
    <path class="cls-1" d="M0,106.22c4.56-4.89,8.75-10.16,16.66-9.49,5.89.5,10.34,3.98,15.06,6.69,37.43,21.45,74.81,42.98,111.96,64.91,5.67,3.35,9.91,2.95,15.11-.04,35.73-20.61,71.48-41.18,107.36-61.53,6.64-3.76,12.52-9.48,20.99-9.34,7.66.12,12.85,4.19,14.33,11.67.52,2.61.77,5.31.77,7.97.04,40.09.04,80.18.02,120.27,0,14.3-3.78,16.89-17.32,11.63-5.73-2.23-10.9-5.62-15.77-9.32-4.01-3.05-5.43-7.49-5.4-12.5.08-13.64.08-27.28.03-40.92-.05-14.23-11.41-21.24-23.98-14.28-26.97,14.94-53.73,30.25-80.49,45.55-5.97,3.41-11.64,3.37-17.43,0-25.65-14.86-51.3-29.7-76.91-44.63-9.87-5.76-18.71-4.73-23.86,3.22-2.44,3.76-2.6,8.13-2.58,12.47.07,12.6.23,25.21.19,37.81-.05,14.99-18.29,26.59-31.1,20.05-3.46-1.77-4.41-5.68-7.63-7.46V106.22Z"/>
    <path class="cls-2" d="M150.56,346.85c-22.32-12.9-44.65-25.78-66.96-38.7-12.71-7.36-25.45-14.68-38.1-22.14-13.42-7.92-13.23-21.45.32-29.12,1.62-.92,3.35-1.68,4.84-2.77,5.8-4.21,11.25-3.5,17.25.07,23.28,13.86,47.07,26.89,69.95,41.35,10,6.32,17.6,5.89,27.36-.16,22.49-13.94,45.65-26.8,68.57-40.04,10.41-6.01,24.99-2.04,31.25,8.38,4.73,7.87,2.04,16.86-6.9,22.01-28.13,16.22-56.33,32.32-84.49,48.48-7.3,4.19-14.57,8.43-21.85,12.64h-1.24Z"/>
    <path class="cls-2" d="M1020.12,170.62c-9.53,16.42-19.04,32.84-28.58,49.25-6.38,10.96-15.92,11.05-22.24.21-9.62-16.51-19.21-33.05-29.88-49.35,0,11.85,0,23.7,0,35.55,0,10.12.03,20.25-.02,30.37-.04,8.66-3.44,12.15-11.91,12.2-8.5.06-17,.06-25.49,0-8.35-.06-11.73-3.55-11.75-12.38-.06-28.3-.02-56.61-.02-84.91,0-14.26-.05-28.51.02-42.77.04-9.46,3.21-12.53,12.74-12.56,10.57-.03,21.14.16,31.71-.08,6.13-.14,10.06,2.43,12.99,7.66,10.59,18.9,21.37,37.69,32.09,56.54,2.13-1.14,2.72-3.23,3.73-4.99,9.78-17,19.65-33.95,29.21-51.07,3.18-5.69,7.36-8.35,13.97-8.16,10.77.31,21.55.02,32.33.09,7.61.06,11.07,3.41,11.08,10.94.05,43.59.06,87.19,0,130.78-.01,7.48-3.58,10.85-11.17,10.92-8.7.08-17.41.07-26.11,0-7.9-.06-11.36-3.45-11.39-11.33-.08-20.25-.03-40.49-.03-60.74,0-1.99,0-3.98,0-5.97-.42-.06-.84-.13-1.27-.19Z"/>
    <path class="cls-2" d="M1308.98,170.81c1.53-1.86.79-3.99.79-5.95.07-18.8.01-37.6.06-56.39.02-9.27,3.02-12.22,12.23-12.25,8.29-.03,16.58-.06,24.87,0,8.4.06,11.83,3.33,11.84,11.51.04,43.17.04,86.35,0,129.52,0,8.13-3.55,11.54-11.81,11.61-7.67.06-15.35-.25-23,.1-6.82.31-11.25-2.56-14.72-8.24-12.69-20.8-25.61-41.46-38.44-62.17-1.03-1.66-2.09-3.29-4.19-4.65,0,12.28,0,24.57,0,36.85,0,8.88.08,17.77-.02,26.65-.09,7.78-3.68,11.37-11.43,11.45-8.7.09-17.41.07-26.11,0-8.22-.06-11.54-3.37-11.66-11.79-.12-9.09-.03-18.18-.03-27.27,0-33.26,0-66.52,0-99.78,0-11.24,2.6-13.79,13.92-13.81,7.05,0,14.11.27,21.13-.09,6.59-.34,10.83,2.39,14.2,7.89,12.72,20.78,25.69,41.41,38.61,62.06,1.04,1.66,1.58,3.81,3.74,4.73Z"/>
    <path class="cls-2" d="M751.96,172.64c-.14,45.27-34.55,79.08-80.38,78.97-46.15-.11-80.62-34.28-80.41-79.71.21-44.83,35.22-78.63,81.15-78.33,45.59.29,79.78,34.24,79.64,79.07ZM640.47,172.45c-.02,18.25,12.9,31.39,31.01,31.53,18.02.14,31.4-13.07,31.51-31.1.12-18.44-13.15-31.89-31.4-31.85-18.06.04-31.1,13.2-31.12,31.42Z"/>
    <path class="cls-2" d="M1503.57,248.86c-5.18,0-10.37-.08-15.55.03-5.77.12-9.24-2.6-11.07-8-1.74-5.14-.9-12.46-5.59-14.93-4.23-2.23-10.53-.58-15.92-.59-6.84-.02-13.7.32-20.52-.12-4.5-.3-5.95,1.43-7.04,5.53-5.06,19.02-4.14,18.29-24.38,18.11-6.84-.06-13.68.05-20.52-.03-7.85-.09-11.31-4.34-8.91-11.58,14.68-44.21,29.47-88.38,44.3-132.55,1.92-5.71,6.11-8.56,12.26-8.53,13.68.05,27.37.04,41.05,0,6.18-.01,10.23,2.94,12.15,8.68,14.81,44.38,29.62,88.77,44.31,133.19,2.08,6.28-1.18,10.56-7.79,10.75-5.59.16-11.19.03-16.79.04ZM1451.11,147.04c-4.13,14.91-7.78,28.11-11.46,41.3-.73,2.64.51,3.17,2.86,3.13,5.57-.11,11.15-.15,16.72,0,2.96.08,4.02-.44,3.05-3.78-3.72-12.9-7.15-25.88-11.18-40.65Z"/>
    <path class="cls-2" d="M1092.3,172.25c0-21.27-.02-42.55.02-63.82.01-9.11,3.13-12.2,12.32-12.21,27.14-.03,54.29-.03,81.43,0,8.33.01,11.72,3.35,11.85,11.58.1,5.99.13,11.98-.02,17.97-.19,7.77-3.77,11.27-11.6,11.32-13.05.08-26.11.19-39.16-.07-4.32-.08-6.21.56-6.06,5.59.34,11.6.03,11.61,11.86,11.61,8.91,0,17.82-.09,26.73,0,7.93.09,11.17,3.44,11.27,11.4.05,4.13.05,8.26,0,12.39-.12,7.94-3.43,11.33-11.3,11.38-11.19.07-22.38.17-33.56-.06-3.76-.08-4.92.92-4.95,4.81-.09,13.77-.26,13.76,13.24,13.76,11.4,0,22.79-.05,34.19.03,7.9.06,11.21,3.42,11.32,11.38.08,6.4.15,12.81-.03,19.21-.2,6.73-3.72,10.25-10.53,10.27-28.8.09-57.6.1-86.4,0-7.17-.02-10.56-3.81-10.58-11.51-.06-21.69-.02-43.37-.02-65.06Z"/>
    <path class="cls-2" d="M532.89,251.45c-47.76-.15-81.52-28.33-86.22-66.2-5.4-43.48,17.75-79.43,58.58-89.32,29.32-7.1,55.85-.86,78.22,20.06,7.34,6.86,6.85,10.85-1.61,16.53-7.55,5.07-15.23,9.97-22.64,15.24-4.74,3.37-8.68,3.34-13.44-.26-11.49-8.69-27.65-8.65-38.84-.43-10.94,8.03-15.23,23.1-10.45,36.73,6.62,18.88,30.96,26.59,47.84,14.54,6.15-4.39,10.76-4.45,16.62-.11,7.14,5.28,14.81,9.83,22.18,14.81,6.65,4.5,7.17,9.02,1.58,14.65-16.15,16.3-36.01,23.59-51.81,23.75Z"/>
    <path class="cls-2" d="M768.97,172.17c0-21.29-.02-42.58.01-63.87.01-8.77,3.24-12.03,11.89-12.08,8.5-.04,17-.07,25.51,0,8.07.06,11.33,3.21,11.35,11.24.06,30.18.16,60.36-.09,90.54-.04,5.01,1.41,6.25,6.23,6.13,13.26-.32,26.54-.17,39.81-.09,7.62.04,10.98,3.39,11.07,10.93.09,7.65.11,15.3,0,22.94-.11,7.43-3.63,10.91-11.16,10.93-27.79.06-55.57.06-83.36,0-7.69-.02-11.22-3.68-11.24-11.55-.06-21.7-.02-43.41-.02-65.11Z"/>
    <path class="cls-2" d="M35.75,75.34c.08-7.01,2.49-11.4,7.35-14.2C77.66,41.16,112.27,21.27,146.82,1.27c3.05-1.76,5.52-1.65,8.56.1,34.45,19.77,69.03,39.3,103.42,59.16,11.14,6.43,11,19.27.68,26.99-9.57,7.16-18.27,7.95-28.96,1.36-23.58-14.53-47.91-27.86-71.8-41.91-5.21-3.06-9.5-3.2-14.84-.02-25.41,15.13-51.27,29.52-76.48,44.98-9.47,5.81-15.54.09-22.63-3.61-5.76-3.01-9.22-7.56-9.02-12.97Z"/>
    <path class="cls-1" d="M321.01,172.37c0-21.27-.03-42.54,0-63.81.02-8.71,2.41-11.98,10.83-12.53,9.28-.61,18.65-.58,27.94-.05,7.27.41,10.52,4.5,10.54,11.88.08,42.96.11,85.91.08,128.87,0,8.23-3.95,12.08-12.09,12.14-8.7.06-17.4.05-26.1,0-7.47-.05-11.18-3.8-11.19-11.43-.04-21.68-.01-43.37-.02-65.05Z"/>
  </g>
</svg>